<svg xmlns="http://www.w3.org/2000/svg" viewBox="0 0 497 81.3"><defs><style>.cls-1{fill:#2bd977;}</style></defs><title>carbonQuest-logo</title><g id="Calque_2" data-name="Calque 2"><g id="Calque_1-2" data-name="Calque 1"><path class="cls-1" d="M91.13,14.25V52.87H78.23V49q-3.78,4.5-11.4,4.49a19.05,19.05,0,0,1-9.58-2.45,17.78,17.78,0,0,1-6.84-7,21.36,21.36,0,0,1-2.53-10.55A21.15,21.15,0,0,1,50.41,23,17.59,17.59,0,0,1,57.25,16a19.24,19.24,0,0,1,9.58-2.42q6.84,0,10.76,4V14.25ZM75.52,40.3a9.63,9.63,0,0,0,2.28-6.81,9.4,9.4,0,0,0-2.28-6.7,8.26,8.26,0,0,0-11.68,0,9.4,9.4,0,0,0-2.28,6.7,9.63,9.63,0,0,0,2.28,6.81,8.19,8.19,0,0,0,11.68,0Z"/><path class="cls-1" d="M118.1,14.93a20.4,20.4,0,0,1,7.59-1.32V25.79a28.3,28.3,0,0,0-3.07-.21,9.43,9.43,0,0,0-6.8,2.35q-2.46,2.36-2.46,7.2V52.87H99.82V14.25h12.9v4.63A12.67,12.67,0,0,1,118.1,14.93Z"/><path class="cls-1" d="M165.13,16A17.73,17.73,0,0,1,172,23a21.26,21.26,0,0,1,2.53,10.51A21.47,21.47,0,0,1,172,44a17.91,17.91,0,0,1-6.84,7,19.11,19.11,0,0,1-9.59,2.45q-7.62,0-11.4-4.49v3.85H131.25V0h13.53V17.6q3.93-4,10.76-4A19.3,19.3,0,0,1,165.13,16ZM158.54,40.3a9.63,9.63,0,0,0,2.28-6.81,9.4,9.4,0,0,0-2.28-6.7,8.27,8.27,0,0,0-11.69,0,9.4,9.4,0,0,0-2.28,6.7,9.63,9.63,0,0,0,2.28,6.81,8.2,8.2,0,0,0,11.69,0Z"/><path class="cls-1" d="M189,51a19.42,19.42,0,0,1-7.8-7.13,19.22,19.22,0,0,1-2.81-10.33,19,19,0,0,1,10.58-17.35,24.26,24.26,0,0,1,11.22-2.53,24.51,24.51,0,0,1,11.26,2.53,19,19,0,0,1,7.76,7.05A19.22,19.22,0,0,1,222,33.49a19.38,19.38,0,0,1-2.78,10.33A19.12,19.12,0,0,1,211.41,51,25.89,25.89,0,0,1,189,51ZM206,40.3a9.63,9.63,0,0,0,2.28-6.81,9.4,9.4,0,0,0-2.28-6.7,8.26,8.26,0,0,0-11.68,0,9.4,9.4,0,0,0-2.28,6.7,9.63,9.63,0,0,0,2.28,6.81,8.19,8.19,0,0,0,11.68,0Z"/><path class="cls-1" d="M265,17.88q4.38,4.29,4.38,12.9V52.87H255.8V33q0-7.91-6.34-7.91a7.25,7.25,0,0,0-5.6,2.28q-2.1,2.28-2.1,6.84V52.87H228.22V14.25h12.9v4.21a15.32,15.32,0,0,1,5.42-3.6,18.37,18.37,0,0,1,6.84-1.25Q260.57,13.61,265,17.88Z"/><path class="cls-1" d="M378.72,14.25V52.87h-12.9V48.74a14,14,0,0,1-5.13,3.56,16.71,16.71,0,0,1-6.34,1.21q-7.49,0-11.94-4.41T338,35.84V14.25H351.5V33.63c0,2.9.54,5,1.64,6.34a5.78,5.78,0,0,0,4.77,2,6.77,6.77,0,0,0,5.24-2.24q2-2.25,2-6.88V14.25Z"/><path class="cls-1" d="M412.88,42.4a14.07,14.07,0,0,0,4.1-2.57l7,7.41q-5.47,6.27-16.38,6.27A26.26,26.26,0,0,1,395.75,51,18.88,18.88,0,0,1,385,33.49a19.06,19.06,0,0,1,10.43-17.31,23.05,23.05,0,0,1,10.94-2.57,22.75,22.75,0,0,1,10.3,2.32,18.14,18.14,0,0,1,7.45,6.77,19.56,19.56,0,0,1,2.77,10.58l-27.57,5.27q2.2,4.64,8.76,4.63A13.36,13.36,0,0,0,412.88,42.4Zm-12.15-17a9.35,9.35,0,0,0-2.49,6.24l15.68-3.07a7.22,7.22,0,0,0-2.71-3.88,7.89,7.89,0,0,0-4.78-1.46A7.8,7.8,0,0,0,400.73,25.4Z"/><path class="cls-1" d="M437.64,52.41a25.28,25.28,0,0,1-7.55-2.89l4.06-9.26a23,23,0,0,0,6.27,2.6,28.07,28.07,0,0,0,7.2,1,11.62,11.62,0,0,0,4.67-.67,2.14,2.14,0,0,0,1.39-2c0-.86-.56-1.46-1.68-1.82a33.67,33.67,0,0,0-5.31-1,51.93,51.93,0,0,1-7.87-1.5,12.15,12.15,0,0,1-5.59-3.42,9.77,9.77,0,0,1-2.36-7,10.61,10.61,0,0,1,2.21-6.6,14.74,14.74,0,0,1,6.45-4.56,27.79,27.79,0,0,1,10.16-1.67,41,41,0,0,1,8.33.85,23.72,23.72,0,0,1,6.91,2.43l-4.06,9.19a22.5,22.5,0,0,0-11.11-2.85,11,11,0,0,0-4.7.75,2.23,2.23,0,0,0-1.5,2c0,.9.54,1.53,1.64,1.89a38.36,38.36,0,0,0,5.41,1.1,60.2,60.2,0,0,1,7.91,1.64A12.07,12.07,0,0,1,464,34a9.63,9.63,0,0,1,2.32,6.88,10.47,10.47,0,0,1-2.21,6.52,14.4,14.4,0,0,1-6.52,4.52,29,29,0,0,1-10.37,1.64A41.46,41.46,0,0,1,437.64,52.41Z"/><path class="cls-1" d="M497,51.3a13.45,13.45,0,0,1-4.17,1.64,23.12,23.12,0,0,1-5.24.57q-7.54,0-11.57-3.7t-4-11.05V5.63h13.54V15.68h8.76V25.79h-8.76V38.62a4.58,4.58,0,0,0,1.07,3.28A3.8,3.8,0,0,0,489.52,43a7.14,7.14,0,0,0,4.13-1.21Z"/><path class="cls-1" d="M327.56,14.54a25,25,0,0,0-9.84-9.19,31.6,31.6,0,0,0-28.2,0,24.81,24.81,0,0,0-13.4,22.41,25.46,25.46,0,0,0,2.57,11.42,24.51,24.51,0,0,0,7.22,8.7,27.42,27.42,0,0,0,10.71,4.84v9.33h-6.71a2.75,2.75,0,0,0-1.94,4.7l13.74,13.74a2.74,2.74,0,0,0,3.89,0l13.74-13.74a2.75,2.75,0,0,0-1.95-4.7h-6.77V52.72a27.35,27.35,0,0,0,10.71-4.84,24.49,24.49,0,0,0,7.21-8.7,25.34,25.34,0,0,0,2.58-11.42A25,25,0,0,0,327.56,14.54ZM315.21,35.15a12.58,12.58,0,0,1-4.8,5,14,14,0,0,1-13.58,0,12.58,12.58,0,0,1-4.8-5,15.07,15.07,0,0,1-1.77-7.39A15.07,15.07,0,0,1,292,20.37a12.74,12.74,0,0,1,4.8-5,14,14,0,0,1,13.58,0,12.74,12.74,0,0,1,4.8,5A15.08,15.08,0,0,1,317,27.76,15.08,15.08,0,0,1,315.21,35.15Z"/><path class="cls-1" d="M42.07,42.41a31.27,31.27,0,0,1-2.23-6,14.76,14.76,0,0,1-11.69,5.76,14.52,14.52,0,0,1-7.24-1.78,12.3,12.3,0,0,1-4.91-5,15.38,15.38,0,0,1-1.75-7.45A15.37,15.37,0,0,1,16,20.49a12.33,12.33,0,0,1,4.91-5,15,15,0,0,1,18.84,3.89,31.19,31.19,0,0,1,3.62-8.61,32.25,32.25,0,0,1,2-2.89,24.3,24.3,0,0,0-5.61-3.43A30.15,30.15,0,0,0,27.43,2,29.52,29.52,0,0,0,13.36,5.31a24.76,24.76,0,0,0-9.8,9.23A25.46,25.46,0,0,0,0,27.93a25.5,25.5,0,0,0,3.56,13.4,24.83,24.83,0,0,0,9.8,9.23,29.63,29.63,0,0,0,14.07,3.31,30.31,30.31,0,0,0,12.33-2.42,24.3,24.3,0,0,0,5.77-3.57A31.81,31.81,0,0,1,42.07,42.41Z"/></g></g></svg>