<svg xmlns="http://www.w3.org/2000/svg" viewBox="0 0 179.05 141.32"><defs><style>.cls-1{fill:#2bd977;}</style></defs><title>carbonQuest-favicon</title><g id="Calque_2" data-name="Calque 2"><g id="Calque_1-2" data-name="Calque 1"><path class="cls-1" d="M172.7,22.3A44.71,44.71,0,0,0,155.17,5.92,52.63,52.63,0,0,0,130,0a52.57,52.57,0,0,0-25.14,5.92A44.16,44.16,0,0,0,81,45.87a45.18,45.18,0,0,0,4.59,20.35A43.62,43.62,0,0,0,98.45,81.74a48.83,48.83,0,0,0,19.1,8.62V107h-12a4.92,4.92,0,0,0-3.47,8.4l24.49,24.49a4.91,4.91,0,0,0,7,0l24.49-24.49a4.92,4.92,0,0,0-3.47-8.4H142.5V90.36a48.83,48.83,0,0,0,19.1-8.62,43.56,43.56,0,0,0,12.84-15.52,44.93,44.93,0,0,0,4.61-20.35A44.59,44.59,0,0,0,172.7,22.3ZM150.26,60.56a22.5,22.5,0,0,1-8.52,8.83,24.73,24.73,0,0,1-24.05,0,22.47,22.47,0,0,1-8.51-8.83A26.71,26.71,0,0,1,106,47.47a26.75,26.75,0,0,1,3.14-13.1,22.58,22.58,0,0,1,8.51-8.82,24.73,24.73,0,0,1,24.05,0,22.6,22.6,0,0,1,8.52,8.82,26.85,26.85,0,0,1,3.13,13.1A26.81,26.81,0,0,1,150.26,60.56Z"/><path class="cls-1" d="M74.4,71.8a55.33,55.33,0,0,1-3.94-10.6Q61.93,71.4,49.78,71.4A25.66,25.66,0,0,1,37,68.25a21.88,21.88,0,0,1-8.7-8.88A27.37,27.37,0,0,1,25.2,46.2,27.31,27.31,0,0,1,28.29,33,21.85,21.85,0,0,1,37,24.14,25.66,25.66,0,0,1,49.78,21q12,0,20.53,10A55.14,55.14,0,0,1,76.7,15.79a55.84,55.84,0,0,1,3.54-5.11,42.87,42.87,0,0,0-9.92-6.07A53.35,53.35,0,0,0,48.52.32,52.17,52.17,0,0,0,23.63,6.18,43.88,43.88,0,0,0,6.3,22.5,45,45,0,0,0,0,46.2,45,45,0,0,0,6.3,69.89,43.88,43.88,0,0,0,23.63,86.21a52.17,52.17,0,0,0,24.89,5.86,53.51,53.51,0,0,0,21.8-4.28,42.86,42.86,0,0,0,10.21-6.31A57.21,57.21,0,0,1,74.4,71.8Z"/></g></g></svg>